<svg xmlns="http://www.w3.org/2000/svg" viewBox="0 0 1781.6 269.3"><defs><style>.cls-1{fill:#fff;}.cls-2{fill:#51398e;}</style></defs><g id="Layer_1" data-name="Layer 1"><path class="cls-1" d="M484.7,327.8V138.7h-69v-40H602v40H532.6V327.8Z" transform="translate(-70.9 -77.2)"/><path class="cls-1" d="M726.8,327.8l-26.9-98.7L673,327.8H627.1L578.8,158h47.3l27.6,109.1L677.2,158h45.5l26.6,109.1L775.1,158h46.3L772.7,327.8Z" transform="translate(-70.9 -77.2)"/><path class="cls-1" d="M825.5,137.7V95.9h44.9v41.8Zm0,190.1V158h44.9V327.8Z" transform="translate(-70.9 -77.2)"/><path class="cls-1" d="M978.3,216h41.8v48.3c0,35.9-20.7,68-68.7,68-49.6,0-69.3-31.8-69.3-68.3V112.2h44.1V158h93.9v31.8H926.2v69.7c0,21.4,7.6,33.8,25.9,33.8s26.2-12.1,26.2-33.1Z" transform="translate(-70.9 -77.2)"/><path class="cls-1" d="M1182.6,266.4c-4.9,39.3-36.9,65.9-78,65.9-46.2,0-78-30.7-78-91.5s31.8-87.2,79.4-87.2c44.1,0,74.2,25.1,76.9,65.2h-45.2c-2.4-17.6-15.2-28-32.1-28-18.9,0-34.5,12.1-34.5,49s15.6,54.9,33.2,54.9,31.4-10,33.1-28.3Z" transform="translate(-70.9 -77.2)"/><path class="cls-1" d="M1295.7,327.8V222.6c0-25.6-8.6-33.5-28.9-33.5-22.5,0-34.9,18.6-34.9,41.4v97.3h-44.8V95.9h44.8v84.2c6.6-15.2,27.3-26.5,50-26.5,34.9,0,59,20.3,59,54.1V327.8Z" transform="translate(-70.9 -77.2)"/><path class="cls-1" d="M1350.9,327.8V98.7h112.8c44.9,0,69,24.1,69,62.4,0,19.7-12,36.3-27.9,42.8,19.3,7.3,34.8,22.8,34.8,55.6,0,41.7-27.9,68.3-85.5,68.3Zm46.3-189.4v49.7h60.3c19,0,29-8.7,29-24.9s-9.3-24.8-31.7-24.8Zm60.7,150.4c22.1,0,35.2-14.1,35.2-32.8s-13.1-29-34.5-29h-61.4v61.8Z" transform="translate(-70.9 -77.2)"/><path class="cls-1" d="M1537.6,242.9c0-53.8,33.4-89.3,87.3-89.3s86.2,35.1,86.2,89.3-33.5,89.4-86.2,89.4C1570,332.3,1537.6,295.7,1537.6,242.9Zm128.3,0c0-34.5-13.8-51.4-41-51.4s-41.1,16.9-41.1,51.4,13.8,51.8,41.1,51.8S1665.9,277.4,1665.9,242.9Z" transform="translate(-70.9 -77.2)"/><path class="cls-1" d="M1797.7,327.8,1768,276.7l-29,51.1h-53.8l57-86.6L1687,158h54.1l28.7,49.4,28.9-49.4h52.1l-56.2,83.2,58,86.6Z" transform="translate(-70.9 -77.2)"/></g><g id="Layer_3" data-name="Layer 3"><g id="Layer_2-2" data-name="Layer 2"><path class="cls-2" d="M145.7,339a67.3,67.3,0,0,1-67.3-67.3V152a67.3,67.3,0,0,1,67.3-67.3H265.5A67.3,67.3,0,0,1,332.8,152V271.7A67.3,67.3,0,0,1,265.5,339Z" transform="translate(-70.9 -77.2)"/><path class="cls-1" d="M265.5,92.1a59.8,59.8,0,0,1,59.8,59.8h0V271.7a59.9,59.9,0,0,1-59.8,59.9H145.7a59.8,59.8,0,0,1-59.8-59.8h0V152a59.9,59.9,0,0,1,59.8-59.9H265.5m0-14.9H145.7A74.8,74.8,0,0,0,70.9,152V271.7a74.8,74.8,0,0,0,74.8,74.8H265.5a74.8,74.8,0,0,0,74.8-74.8V152a74.8,74.8,0,0,0-74.8-74.8Z" transform="translate(-70.9 -77.2)"/></g><g id="Layer_3-2" data-name="Layer 3"><path class="cls-1" d="M142.3,270.1l-18.7-18.7V153.2H161V186h32.8v37.4H161v9.3h32.8v37.4Z" transform="translate(-70.9 -77.2)"/><path class="cls-1" d="M203.1,270.1V153.2h37.5V186h28l18.7,18.7v46.7l-18.7,18.7Zm46.8-32.7V218.7h-9.3v18.7Z" transform="translate(-70.9 -77.2)"/></g></g></svg>